<?xml version="1.0" encoding="utf-8"?>
<!-- Generator: Adobe Illustrator 22.1.0, SVG Export Plug-In . SVG Version: 6.00 Build 0)  -->
<svg version="1.1" id="レイヤー_1" xmlns="http://www.w3.org/2000/svg" xmlns:xlink="http://www.w3.org/1999/xlink" x="0px"
	 y="0px" viewBox="0 0 652 149" style="enable-background:new 0 0 652 149;" xml:space="preserve">
<style type="text/css">
	.st0{fill:#C6B19A;}
	.st1{fill:#A17641;}
</style>
<g>
	<g>
		<path class="st0" d="M61.8,85.7c8.7,0,15.8,7.1,15.8,15.8c0,8.7-7.1,15.8-15.8,15.8S46,110.2,46,101.5
			C46,92.8,53.1,85.7,61.8,85.7 M61.8,77c-13.6,0-24.5,11-24.5,24.5s11,24.5,24.5,24.5c13.6,0,24.5-11,24.5-24.5S75.3,77,61.8,77
			L61.8,77z"/>
		<path class="st1" d="M57.4,27.9h31.7v7.6H66.2V49h21.6v7.3H66.2V77h-8.7V27.9z"/>
		<g>
			<g>
				<rect x="97.8" y="27.9" class="st1" width="8.7" height="49.1"/>
				<polygon class="st1" points="106.6,27.9 97.8,27.9 97.8,77 106.6,77 106.6,27.9 				"/>
			</g>
		</g>
		<g>
			<g>
				<rect x="102.6" y="27.9" class="st1" width="22.9" height="7.6"/>
				<polygon class="st1" points="125.5,27.9 102.6,27.9 102.6,35.5 125.5,35.5 125.5,27.9 				"/>
			</g>
		</g>
		<path class="st0" d="M151.2,85.7c8.7,0,15.8,7.1,15.8,15.8c0,8.7-7.1,15.8-15.8,15.8c-8.7,0-15.8-7.1-15.8-15.8
			C135.4,92.8,142.5,85.7,151.2,85.7 M151.2,77c-13.6,0-24.5,11-24.5,24.5s11,24.5,24.5,24.5c13.6,0,24.5-11,24.5-24.5
			S164.8,77,151.2,77L151.2,77z"/>
		<rect x="84.4" y="97.2" class="st0" width="48.6" height="8.7"/>
		<polygon class="st1" points="125.5,27.9 116.1,27.9 137.9,80.9 146,77.5 		"/>
		<rect x="57.4" y="27.9" class="st1" width="31.7" height="7.9"/>
		<rect x="57.4" y="48.7" class="st1" width="31.7" height="7.9"/>
		<rect x="102.2" y="56.6" class="st1" width="31.7" height="7.9"/>
		<rect x="97.8" y="27.9" class="st1" width="24.2" height="7.9"/>
	</g>
	<g>
		<g>
			<g>
				<path class="st1" d="M204,42c-0.2,0-0.4,0.1-0.5,0.3l-6.3,12.6c-0.1,0.2,0,0.3,0.2,0.3h45.9c0.2,0,0.3,0.1,0.2,0.3l-33,65.8
					c-0.1,0.2,0,0.3,0.2,0.3h12.6c0.2,0,0.4-0.1,0.5-0.3l39.6-79.1c0.1-0.2,0-0.3-0.2-0.3H204z"/>
			</g>
			<g>
				<path class="st1" d="M257.1,121.3c-0.1,0.2,0,0.3,0.2,0.3h12.6c0.2,0,0.4-0.1,0.5-0.3l13-25.9c0.1-0.2,0-0.3-0.2-0.3h-12.6
					c-0.2,0-0.4,0.1-0.5,0.3L257.1,121.3z"/>
			</g>
			<g>
				<path class="st1" d="M263.9,68.5c-0.2,0-0.4,0.1-0.5,0.3l-6.3,12.6c-0.1,0.2,0,0.3,0.2,0.3h45.8c0.2,0,0.3,0.1,0.2,0.3l-13,25.9
					c-0.1,0.2,0,0.3,0.2,0.3h12.6c0.2,0,0.4-0.1,0.5-0.3l19.6-39.2c0.1-0.2,0-0.3-0.2-0.3H263.9z"/>
			</g>
			<g>
				<path class="st1" d="M419,42c-0.2,0-0.4,0.1-0.5,0.3l-6.3,12.6c-0.1,0.2,0,0.3,0.2,0.3h45.9c0.2,0,0.3,0.1,0.2,0.3l-16.4,32.6
					c-0.1,0.2-0.2,0.2-0.3,0l-6.4-12.7c-0.1-0.2-0.3-0.3-0.5-0.3h-12.6c-0.2,0-0.3,0.1-0.2,0.3l23,45.8c0.1,0.2,0.3,0.3,0.5,0.3
					h12.6c0.2,0,0.3-0.1,0.2-0.3l-9.6-19.2c-0.1-0.2-0.1-0.5,0-0.6l29.7-59.2c0.1-0.2,0-0.3-0.2-0.3H419z"/>
			</g>
			<g>
				<path class="st1" d="M518.5,42.3c0-0.2-0.2-0.4-0.4-0.4h-12.6c-0.2,0-0.4,0.2-0.4,0.4v39.1c0,0.2,0.2,0.4,0.4,0.4h12.6
					c0.2,0,0.4-0.2,0.4-0.4V42.3z"/>
			</g>
			<g>
				<path class="st1" d="M340.2,88.1c-0.1,0.2,0,0.3,0.2,0.3H385c0.2,0,0.4-0.1,0.5-0.3l6.3-12.6c0.1-0.2,0-0.3-0.2-0.3h-44.6
					c-0.2,0-0.4,0.1-0.5,0.3L340.2,88.1z"/>
			</g>
			<g>
				<path class="st1" d="M582,75.2c-0.2,0-0.4,0.1-0.5,0.3l-6.3,12.6c-0.1,0.2,0,0.3,0.2,0.3H620c0.2,0,0.4-0.1,0.5-0.3l6.3-12.6
					c0.1-0.2,0-0.3-0.2-0.3H582z"/>
			</g>
			<g>
				<path class="st1" d="M545.4,42c-0.2,0-0.4,0.2-0.4,0.4v39.1c0,0.2,0,0.4,0,0.4c0,0-0.1,0.1-0.2,0.3l-19.6,39.2
					c-0.1,0.2,0,0.3,0.2,0.3h12.6c0.2,0,0.4-0.1,0.5-0.3l19.6-39.2c0.1-0.2,0.2-0.5,0.2-0.7V42.3c0-0.2-0.2-0.4-0.4-0.4H545.4z"/>
			</g>
		</g>
	</g>
</g>
</svg>
